<svg width="41" height="41" viewBox="0 0 41 41" fill="none" xmlns="http://www.w3.org/2000/svg">
<path fill-rule="evenodd" clip-rule="evenodd" d="M25.625 35.875C25.625 37.2342 25.085 38.5378 24.1239 39.4989C23.1628 40.46 21.8592 41 20.5 41C19.1408 41 17.8372 40.46 16.8761 39.4989C15.915 38.5378 15.375 37.2342 15.375 35.875C15.375 34.5158 15.915 33.2122 16.8761 32.2511C17.8372 31.29 19.1408 30.75 20.5 30.75C21.8592 30.75 23.1628 31.29 24.1239 32.2511C25.085 33.2122 25.625 34.5158 25.625 35.875ZM30.1863 13.2199C29.8259 12.86 29.3374 12.6579 28.8281 12.6579C28.3188 12.6579 27.8304 12.86 27.47 13.2199L22.4219 18.2681V1.92188C22.4219 1.41216 22.2194 0.923326 21.859 0.562904C21.4986 0.202483 21.0097 0 20.5 0C19.9903 0 19.5015 0.202483 19.141 0.562904C18.7806 0.923326 18.5781 1.41216 18.5781 1.92188V18.2681L13.53 13.2199C13.1657 12.8805 12.6838 12.6956 12.1859 12.7044C11.688 12.7132 11.213 12.9149 10.8608 13.267C10.5087 13.6192 10.307 14.0942 10.2982 14.5921C10.2895 15.09 10.4743 15.5719 10.8138 15.9362L19.1419 24.2643L20.5 25.625L21.8581 24.2669L30.1863 15.9387C30.3648 15.7603 30.5065 15.5484 30.6032 15.3151C30.6998 15.0818 30.7496 14.8318 30.7496 14.5793C30.7496 14.3269 30.6998 14.0768 30.6032 13.8436C30.5065 13.6103 30.3648 13.3984 30.1863 13.2199Z" fill="#F8F8F8"/>
</svg>
